<svg width="18" height="16" viewBox="0 0 18 16" fill="none" xmlns="http://www.w3.org/2000/svg">
<path fill-rule="evenodd" clip-rule="evenodd" d="M0 0.888889C0 0.397969 0.397969 0 0.888889 0H16.8889C17.3798 0 17.7778 0.397969 17.7778 0.888889C17.7778 1.37981 17.3798 1.77778 16.8889 1.77778V9.77778C16.8889 10.485 16.6079 11.1633 16.1078 11.6634C15.6077 12.1635 14.9295 12.4444 14.2222 12.4444H9.77778V14.2222H11.5556C12.0465 14.2222 12.4444 14.6202 12.4444 15.1111C12.4444 15.602 12.0465 16 11.5556 16H6.22222C5.7313 16 5.33333 15.602 5.33333 15.1111C5.33333 14.6202 5.7313 14.2222 6.22222 14.2222H8V12.4444H3.55556C2.84831 12.4444 2.17003 12.1635 1.66994 11.6634C1.16984 11.1633 0.888889 10.485 0.888889 9.77778V1.77778C0.397969 1.77778 0 1.37981 0 0.888889ZM2.66667 1.77778V9.77778C2.66667 10.0135 2.76032 10.2396 2.92702 10.4063C3.09372 10.573 3.31981 10.6667 3.55556 10.6667H14.2222C14.458 10.6667 14.6841 10.573 14.8508 10.4063C15.0175 10.2396 15.1111 10.0135 15.1111 9.77778V1.77778H2.66667ZM6.22222 3.55556C6.71314 3.55556 7.11111 3.95352 7.11111 4.44444V8C7.11111 8.49092 6.71314 8.88889 6.22222 8.88889C5.7313 8.88889 5.33333 8.49092 5.33333 8V4.44444C5.33333 3.95352 5.7313 3.55556 6.22222 3.55556ZM11.5556 5.33333C12.0465 5.33333 12.4444 5.7313 12.4444 6.22222V8C12.4444 8.49092 12.0465 8.88889 11.5556 8.88889C11.0646 8.88889 10.6667 8.49092 10.6667 8V6.22222C10.6667 5.7313 11.0646 5.33333 11.5556 5.33333ZM8.88889 6.22222C9.37981 6.22222 9.77778 6.62019 9.77778 7.11111V8C9.77778 8.49092 9.37981 8.88889 8.88889 8.88889C8.39797 8.88889 8 8.49092 8 8V7.11111C8 6.62019 8.39797 6.22222 8.88889 6.22222Z" fill="white"/>
</svg>
