<svg width="16" height="16" viewBox="0 0 16 16" fill="none" xmlns="http://www.w3.org/2000/svg">
<path d="M8 0C3.584 0 0 3.584 0 8C0 12.416 3.584 16 8 16C12.416 16 16 12.416 16 8C16 3.584 12.416 0 8 0ZM8 14.4C4.472 14.4 1.6 11.528 1.6 8C1.6 4.472 4.472 1.6 8 1.6C11.528 1.6 14.4 4.472 14.4 8C14.4 11.528 11.528 14.4 8 14.4ZM3.6 12.4L9.608 9.608L12.4 3.6L6.392 6.392L3.6 12.4ZM8 7.12C8.488 7.12 8.88 7.512 8.88 8C8.88 8.488 8.488 8.88 8 8.88C7.512 8.88 7.12 8.488 7.12 8C7.12 7.512 7.512 7.12 8 7.12Z" fill="white"/>
</svg>
