<svg width="18" height="16" viewBox="0 0 18 16" fill="none" xmlns="http://www.w3.org/2000/svg">
<path d="M17.216 5.472C16.7662 4.40742 16.1142 3.44021 15.296 2.624C14.4798 1.80582 13.5126 1.15377 12.448 0.704C11.342 0.236 10.17 0 8.96 0C7.75 0 6.578 0.236 5.472 0.704C4.40742 1.15377 3.44021 1.80582 2.624 2.624C1.80582 3.44021 1.15377 4.40742 0.704 5.472C0.236 6.578 0 7.75 0 8.96C0 11.614 1.166 14.114 3.198 15.822L3.232 15.85C3.348 15.946 3.494 16 3.644 16H14.278C14.428 16 14.574 15.946 14.69 15.85L14.724 15.822C16.754 14.114 17.92 11.614 17.92 8.96C17.92 7.75 17.682 6.578 17.216 5.472ZM13.948 14.48H3.972C3.19919 13.7832 2.58154 12.9317 2.15911 11.9807C1.73669 11.0297 1.51894 10.0006 1.52 8.96C1.52 6.972 2.294 5.104 3.7 3.7C5.106 2.294 6.974 1.52 8.96 1.52C10.948 1.52 12.816 2.294 14.22 3.7C15.626 5.106 16.4 6.974 16.4 8.96C16.4 11.072 15.51 13.07 13.948 14.48ZM11.19 6.19C11.1599 6.16022 11.1193 6.14352 11.077 6.14352C11.0347 6.14352 10.9941 6.16022 10.964 6.19L9.274 7.88C8.9 7.78 8.486 7.876 8.192 8.17C8.08787 8.27394 8.00525 8.39739 7.94889 8.53329C7.89252 8.66919 7.8635 8.81487 7.8635 8.962C7.8635 9.10913 7.89252 9.25481 7.94889 9.39071C8.00525 9.52661 8.08787 9.65006 8.192 9.754C8.29594 9.85813 8.41939 9.94075 8.55529 9.99711C8.69119 10.0535 8.83687 10.0825 8.984 10.0825C9.13113 10.0825 9.27681 10.0535 9.41271 9.99711C9.54861 9.94075 9.67206 9.85813 9.776 9.754C9.91529 9.61513 10.0155 9.44195 10.0664 9.25196C10.1173 9.06198 10.1172 8.86192 10.066 8.672L11.756 6.982C11.818 6.92 11.818 6.818 11.756 6.756L11.19 6.19ZM8.52 4.16H9.4C9.488 4.16 9.56 4.088 9.56 4V2.4C9.56 2.312 9.488 2.24 9.4 2.24H8.52C8.432 2.24 8.36 2.312 8.36 2.4V4C8.36 4.088 8.432 4.16 8.52 4.16ZM13.72 8.52V9.4C13.72 9.488 13.792 9.56 13.88 9.56H15.48C15.568 9.56 15.64 9.488 15.64 9.4V8.52C15.64 8.432 15.568 8.36 15.48 8.36H13.88C13.792 8.36 13.72 8.432 13.72 8.52ZM13.974 4.576L13.352 3.954C13.3219 3.92422 13.2813 3.90752 13.239 3.90752C13.1967 3.90752 13.1561 3.92422 13.126 3.954L11.994 5.086C11.9642 5.11607 11.9475 5.15668 11.9475 5.199C11.9475 5.24132 11.9642 5.28193 11.994 5.312L12.616 5.934C12.678 5.996 12.78 5.996 12.842 5.934L13.974 4.802C14.036 4.74 14.036 4.638 13.974 4.576ZM4.802 3.954C4.77193 3.92422 4.73132 3.90752 4.689 3.90752C4.64668 3.90752 4.60607 3.92422 4.576 3.954L3.954 4.576C3.92422 4.60607 3.90752 4.64668 3.90752 4.689C3.90752 4.73132 3.92422 4.77193 3.954 4.802L5.086 5.934C5.148 5.996 5.25 5.996 5.312 5.934L5.934 5.312C5.996 5.25 5.996 5.148 5.934 5.086L4.802 3.954ZM3.96 8.36H2.36C2.272 8.36 2.2 8.432 2.2 8.52V9.4C2.2 9.488 2.272 9.56 2.36 9.56H3.96C4.048 9.56 4.12 9.488 4.12 9.4V8.52C4.12 8.432 4.048 8.36 3.96 8.36Z" fill="white"/>
</svg>
