<svg width="19" height="16" viewBox="0 0 19 16" fill="none" xmlns="http://www.w3.org/2000/svg">
<path d="M6.67044 2.66444C6.67044 1.95779 6.95116 1.28008 7.45084 0.780397C7.95052 0.280717 8.62823 0 9.33489 0C10.0415 0 10.7193 0.280717 11.2189 0.780397C11.7186 1.28008 11.9993 1.95779 11.9993 2.66444C11.9993 3.3711 11.7186 4.04881 11.2189 4.54849C10.7193 5.04817 10.0415 5.32889 9.33489 5.32889C8.62823 5.32889 7.95052 5.04817 7.45084 4.54849C6.95116 4.04881 6.67044 3.3711 6.67044 2.66444ZM9.33489 1.33356C9.16011 1.33356 8.98705 1.36798 8.82558 1.43486C8.66411 1.50175 8.51739 1.59978 8.39381 1.72336C8.27022 1.84695 8.17219 1.99366 8.10531 2.15514C8.03842 2.31661 8.004 2.48967 8.004 2.66444C8.004 2.83922 8.03842 3.01228 8.10531 3.17375C8.17219 3.33522 8.27022 3.48194 8.39381 3.60552C8.51739 3.72911 8.66411 3.82714 8.82558 3.89402C8.98705 3.96091 9.16011 3.99533 9.33489 3.99533C9.68786 3.99533 10.0264 3.85511 10.276 3.60552C10.5256 3.35593 10.6658 3.01742 10.6658 2.66444C10.6658 2.31147 10.5256 1.97295 10.276 1.72336C10.0264 1.47377 9.68786 1.33356 9.33489 1.33356ZM13.3356 3.33122C13.3356 3.06853 13.3873 2.80842 13.4878 2.56573C13.5883 2.32304 13.7357 2.10252 13.9214 1.91677C14.1072 1.73102 14.3277 1.58368 14.5704 1.48315C14.8131 1.38263 15.0732 1.33089 15.3359 1.33089C15.5986 1.33089 15.8587 1.38263 16.1014 1.48315C16.3441 1.58368 16.5646 1.73102 16.7503 1.91677C16.9361 2.10252 17.0834 2.32304 17.184 2.56573C17.2845 2.80842 17.3362 3.06853 17.3362 3.33122C17.3362 3.86174 17.1255 4.37054 16.7503 4.74567C16.3752 5.12081 15.8664 5.33155 15.3359 5.33155C14.8054 5.33155 14.2966 5.12081 13.9214 4.74567C13.5463 4.37054 13.3356 3.86174 13.3356 3.33122ZM15.3359 2.66444C15.159 2.66444 14.9895 2.73469 14.8644 2.85974C14.7394 2.98478 14.6691 3.15438 14.6691 3.33122C14.6691 3.50806 14.7394 3.67766 14.8644 3.8027C14.9895 3.92775 15.159 3.998 15.3359 3.998C15.5127 3.998 15.6823 3.92775 15.8074 3.8027C15.9324 3.67766 16.0027 3.50806 16.0027 3.33122C16.0027 3.15438 15.9324 2.98478 15.8074 2.85974C15.6823 2.73469 15.5127 2.66444 15.3359 2.66444ZM3.33389 1.33089C2.80337 1.33089 2.29458 1.54164 1.91944 1.91677C1.5443 2.29191 1.33356 2.8007 1.33356 3.33122C1.33356 3.86174 1.5443 4.37054 1.91944 4.74567C2.29458 5.12081 2.80337 5.33155 3.33389 5.33155C3.86441 5.33155 4.3732 5.12081 4.74834 4.74567C5.12347 4.37054 5.33422 3.86174 5.33422 3.33122C5.33422 2.8007 5.12347 2.29191 4.74834 1.91677C4.3732 1.54164 3.86441 1.33089 3.33389 1.33089ZM2.66711 3.33122C2.66711 3.15438 2.73736 2.98478 2.86241 2.85974C2.98745 2.73469 3.15705 2.66444 3.33389 2.66444C3.51073 2.66444 3.68033 2.73469 3.80537 2.85974C3.93042 2.98478 4.00067 3.15438 4.00067 3.33122C4.00067 3.50806 3.93042 3.67766 3.80537 3.8027C3.68033 3.92775 3.51073 3.998 3.33389 3.998C3.15705 3.998 2.98745 3.92775 2.86241 3.8027C2.73736 3.67766 2.66711 3.50806 2.66711 3.33122ZM4.35806 6.66511C4.12336 7.07031 4.00006 7.5304 4.00067 7.99867H1.33356V11.3326C1.33345 11.6643 1.41583 11.9908 1.57329 12.2827C1.73074 12.5747 1.95833 12.8229 2.23556 13.005C2.51279 13.1872 2.83096 13.2975 3.16143 13.3261C3.4919 13.3547 3.82429 13.3007 4.12869 13.1689C4.22737 13.6103 4.38206 14.0317 4.5821 14.4251C4.07597 14.6294 3.5274 14.7064 2.98457 14.6492C2.44175 14.592 1.92126 14.4024 1.46883 14.0971C1.0164 13.7917 0.645867 13.38 0.389762 12.8979C0.133657 12.4159 -0.000181427 11.8784 1.84582e-07 11.3326V7.99867C1.84582e-07 7.64499 0.140499 7.30579 0.39059 7.0557C0.64068 6.80561 0.979875 6.66511 1.33356 6.66511H4.35806ZM14.0877 14.4251C14.5938 14.6294 15.1424 14.7064 15.6852 14.6492C16.228 14.592 16.7485 14.4024 17.2009 14.0971C17.6534 13.7917 18.0239 13.38 18.28 12.8979C18.5361 12.4159 18.67 11.8784 18.6698 11.3326V7.99867C18.6698 7.64499 18.5293 7.30579 18.2792 7.0557C18.0291 6.80561 17.6899 6.66511 17.3362 6.66511H14.3117C14.5384 7.05718 14.6691 7.51192 14.6691 7.99867H17.3362V11.3326C17.3363 11.6643 17.254 11.9908 17.0965 12.2827C16.939 12.5747 16.7115 12.8229 16.4342 13.005C16.157 13.1872 15.8388 13.2975 15.5084 13.3261C15.1779 13.3547 14.8455 13.3007 14.5411 13.1689C14.4411 13.6103 14.2877 14.0317 14.0877 14.4251ZM6.66778 6.66378C6.3141 6.66378 5.9749 6.80428 5.72481 7.05437C5.47472 7.30446 5.33422 7.64365 5.33422 7.99733V11.9993C5.33422 13.0604 5.75572 14.078 6.50599 14.8282C7.25626 15.5785 8.27385 16 9.33489 16C10.3959 16 11.4135 15.5785 12.1638 14.8282C12.9141 14.078 13.3356 13.0604 13.3356 11.9993V7.99867C13.3356 7.64499 13.1951 7.30579 12.945 7.0557C12.6949 6.80561 12.3557 6.66511 12.002 6.66511H6.66778V6.66378ZM6.66778 7.99733H12.002V11.9993C12.002 12.7067 11.721 13.3851 11.2208 13.8853C10.7206 14.3854 10.0423 14.6664 9.33489 14.6664C8.62753 14.6664 7.94914 14.3854 7.44896 13.8853C6.94878 13.3851 6.66778 12.7067 6.66778 11.9993V7.99867V7.99733Z" fill="white"/>
</svg>
